# Blender v2.92.0 OBJ File: 'triangle_pit.blend'
# www.blender.org
mtllib triangle_pit.mtl
o Cone
v 0.000000 -0.018117 -1.749089
v 1.514755 -0.018117 0.874545
v -1.514755 -0.018117 0.874544
v -0.000000 2.264538 -1.236911
v 1.071196 2.264538 0.618455
v -1.071196 2.264538 0.618455
v -1.514755 2.264538 0.874544
v 0.000000 2.264538 -1.749089
v 1.514755 2.264538 0.874545
v -1.071196 2.264538 0.618455
v -0.000000 2.264538 -1.236911
v 1.071196 2.264538 0.618455
v -1.071196 0.265639 0.618455
v -0.000000 0.265639 -1.236911
v 1.071196 0.265639 0.618455
vt 0.957846 0.130000
vt 0.957846 0.130000
vt 0.542154 0.130000
vt 0.542154 0.130000
vt 0.750000 0.490000
vt 0.750000 0.490000
vt 0.750000 0.419722
vt 0.750000 0.419722
vt 0.896983 0.165139
vt 0.896983 0.165139
vt 0.603017 0.165139
vt 0.750000 0.419722
vt 0.896983 0.165139
vt 0.603017 0.165139
vt 0.603017 0.165139
vn -0.0000 0.0000 1.0000
vn 0.0000 -1.0000 0.0000
vn -0.8660 0.0000 -0.5000
vn 0.8660 0.0000 -0.5000
vn 0.0000 1.0000 -0.0000
vn -0.8660 0.0000 0.5000
vn 0.0000 0.0000 -1.0000
vn 0.8660 0.0000 0.5000
usemtl Material.001
s off
f 2/1/1 9/2/1 7/3/1 3/4/1
f 1/5/2 2/1/2 3/4/2
f 3/4/3 7/3/3 8/6/3 1/5/3
f 4/7/1 11/8/1 12/9/1 5/10/1
f 1/5/4 8/6/4 9/2/4 2/1/4
f 4/7/5 8/6/5 7/3/5 6/11/5
f 6/11/5 7/3/5 9/2/5 5/10/5
f 5/10/5 9/2/5 8/6/5 4/7/5
f 11/8/6 14/12/6 15/13/6 12/9/6
f 5/10/1 12/9/1 10/14/1 6/11/1
f 6/11/1 10/14/1 11/8/1 4/7/1
f 14/12/5 13/15/5 15/13/5
f 12/9/7 15/13/7 13/15/7 10/14/7
f 10/14/8 13/15/8 14/12/8 11/8/8
